<svg version="1.1" id="Layer_1" xmlns="http://www.w3.org/2000/svg" xmlns:xlink="http://www.w3.org/1999/xlink" x="0px" y="0px"
	 width="100%" viewBox="0 0 512 512" enable-background="new 0 0 512 512" xml:space="preserve">
<path fill="#FFFFFF" opacity="1.000000" stroke="none" 
	d="
M172.000000,1.000000 
	C285.621429,1.000000 399.242889,1.000000 512.932129,1.000000 
	C512.932129,171.553528 512.932129,342.107086 512.932129,513.000000 
	C435.644348,513.000000 358.288208,513.000000 280.629700,512.639282 
	C281.895508,511.853882 283.440247,511.205505 285.035370,511.038666 
	C304.550293,508.997681 322.802094,502.686188 340.303650,494.206696 
	C362.644440,483.382660 382.052948,468.699005 398.676971,450.070099 
	C408.564667,438.990051 417.076294,427.088318 424.235748,414.229065 
	C436.914795,391.456024 444.493835,366.803345 446.706604,340.980804 
	C448.309875,322.270508 447.910889,303.251709 443.778778,284.713898 
	C439.300873,264.624817 432.300110,245.413315 421.886658,227.547836 
	C410.354950,207.764023 395.863586,190.383514 378.209503,175.890686 
	C359.804932,160.781738 339.179138,149.332184 316.430176,142.031967 
	C297.130280,135.838562 277.389221,132.206161 257.002747,132.490280 
	C257.001038,120.273552 257.001038,108.522728 257.001038,95.436996 
	C228.533798,125.007103 200.942734,153.667099 173.351685,182.327087 
	C172.901123,182.078354 172.450562,181.829636 172.000000,181.580902 
	C172.000000,121.387268 172.000000,61.193634 172.000000,1.000000 
z"/>
<path fill="#5CD4FF" opacity="1.000000" stroke="none" 
	d="
M171.531342,1.000000 
	C172.000000,61.193634 172.000000,121.387268 172.000000,181.580902 
	C172.450562,181.829636 172.901123,182.078354 173.351685,182.327087 
	C200.942734,153.667099 228.533798,125.007103 257.001038,95.436996 
	C257.001038,108.522728 257.001038,120.273552 257.001221,132.962006 
	C257.002441,168.947678 257.003510,203.995728 257.002808,239.509399 
	C257.001068,251.204346 257.001068,262.433655 257.001068,273.662933 
	C256.570679,273.844482 256.140289,274.026031 255.709885,274.207581 
	C228.244232,245.687469 200.778580,217.167374 173.312927,188.647263 
	C172.875290,188.925064 172.437637,189.202866 172.000000,189.480667 
	C172.000000,191.262878 172.000000,193.045105 172.000000,194.827316 
	C172.000000,232.648697 171.870407,270.470825 172.090378,308.290924 
	C172.145950,317.845154 172.692200,327.486359 174.102600,336.924774 
	C177.391357,358.933167 188.497620,376.549988 206.123001,390.012451 
	C221.133347,401.477478 238.056580,407.481781 257.047729,407.604248 
	C257.014679,443.042084 257.007355,478.021027 257.000000,513.000000 
	C249.312424,513.000000 241.624832,513.000000 233.281311,512.663696 
	C227.964127,511.480896 223.259338,510.822540 218.649155,509.755463 
	C198.520416,505.096527 179.224182,498.240234 161.337402,487.717865 
	C136.658005,473.199585 116.160767,454.226654 99.853050,430.654968 
	C88.980370,414.939240 80.770782,397.907837 75.171799,379.749603 
	C70.074356,363.217987 66.927811,346.271851 66.945190,328.781830 
	C67.053772,219.521317 67.000000,110.260628 67.000000,1.000000 
	C101.687561,1.000000 136.375122,1.000000 171.531342,1.000000 
z"/>
<path fill="#00B8FA" opacity="1.000000" stroke="none" 
	d="
M257.468628,513.000000 
	C257.007355,478.021027 257.014679,443.042084 257.501678,407.542908 
	C301.568420,408.046936 345.418274,368.719482 341.045197,315.268280 
	C337.837708,276.063843 302.773224,237.848938 257.004547,239.043762 
	C257.003510,203.995728 257.002441,168.947678 257.002899,133.427917 
	C277.389221,132.206161 297.130280,135.838562 316.430176,142.031967 
	C339.179138,149.332184 359.804932,160.781738 378.209503,175.890686 
	C395.863586,190.383514 410.354950,207.764023 421.886658,227.547836 
	C432.300110,245.413315 439.300873,264.624817 443.778778,284.713898 
	C447.910889,303.251709 448.309875,322.270508 446.706604,340.980804 
	C444.493835,366.803345 436.914795,391.456024 424.235748,414.229065 
	C417.076294,427.088318 408.564667,438.990051 398.676971,450.070099 
	C382.052948,468.699005 362.644440,483.382660 340.303650,494.206696 
	C322.802094,502.686188 304.550293,508.997681 285.035370,511.038666 
	C283.440247,511.205505 281.895508,511.853882 280.163696,512.639282 
	C272.645752,513.000000 265.291504,513.000000 257.468628,513.000000 
z"/>
<path fill="#FFFFFF" opacity="1.000000" stroke="none" 
	d="
M66.531342,1.000000 
	C67.000000,110.260628 67.053772,219.521317 66.945190,328.781830 
	C66.927811,346.271851 70.074356,363.217987 75.171799,379.749603 
	C80.770782,397.907837 88.980370,414.939240 99.853050,430.654968 
	C116.160767,454.226654 136.658005,473.199585 161.337402,487.717865 
	C179.224182,498.240234 198.520416,505.096527 218.649155,509.755463 
	C223.259338,510.822540 227.964127,511.480896 232.812683,512.663696 
	C155.708450,513.000000 78.416901,513.000000 1.062677,513.000000 
	C1.062677,342.333344 1.062677,171.666672 1.062677,1.000000 
	C22.752718,1.000000 44.407700,1.000000 66.531342,1.000000 
z"/>
<path fill="#FFFFFF" opacity="1.000000" stroke="none" 
	d="
M257.002808,239.509399 
	C302.773224,237.848938 337.837708,276.063843 341.045197,315.268280 
	C345.418274,368.719482 301.568420,408.046936 257.527405,407.084045 
	C238.056580,407.481781 221.133347,401.477478 206.123001,390.012451 
	C188.497620,376.549988 177.391357,358.933167 174.102600,336.924774 
	C172.692200,327.486359 172.145950,317.845154 172.090378,308.290924 
	C171.870407,270.470825 172.000000,232.648697 172.000000,194.827316 
	C172.000000,193.045105 172.000000,191.262878 172.000000,189.480667 
	C172.437637,189.202866 172.875290,188.925064 173.312927,188.647263 
	C200.778580,217.167374 228.244232,245.687469 255.709885,274.207581 
	C256.140289,274.026031 256.570679,273.844482 257.001068,273.662933 
	C257.001068,262.433655 257.001068,251.204346 257.002808,239.509399 
z"/>
</svg>